<?xml version="1.0" encoding="UTF-8" standalone="no"?>
<!-- Created with Inkscape (http://www.inkscape.org/) -->

<svg
   width="174.59645"
   height="96.843819"
   viewBox="0 0 1.8187131 1.0087898"
   version="1.1"
   id="svg5"
   xmlns="http://www.w3.org/2000/svg"
   xmlns:svg="http://www.w3.org/2000/svg">
  <defs
     id="defs2" />
  <g
     id="layer1"
     transform="translate(-3.5186096,-3.6905203)">
    <g
       id="g1945"
       transform="matrix(0.00205191,0,0,0.00205191,3.5186096,3.6905273)">
      <circle
         cx="232.39589"
         cy="103.24635"
         r="50.762669"
         fill="#ff6584"
         id="circle1711" />
      <path
         d="M 548.40633,463.86269 H 299.37989 a 5.07941,5.07941 0 0 1 -0.93059,-0.0737 L 416.22735,259.78044 a 8.24649,8.24649 0 0 1 14.35487,0 l 79.04385,136.90556 3.78685,6.55094 z"
         transform="translate(-156.82437,-204.18443)"
         fill="#3f3d56"
         id="path1713" />
      <polygon
         points="391.582,259.678 306.558,259.678 348.296,199.052 351.3,194.685 352.802,192.502 356.589,199.052 "
         opacity="0.2"
         id="polygon1715" />
      <path
         d="M 687.06247,463.86269 H 471.67506 l 41.73786,-60.62578 3.0036,-4.36731 54.38818,-79.007 c 3.56567,-5.17807 12.14357,-5.50052 16.33577,-0.97665 a 9.82994,9.82994 0 0 1 0.7832,0.97665 z"
         transform="translate(-156.82437,-204.18443)"
         fill="#3f3d56"
         id="path1717" />
      <circle
         cx="593.46332"
         cy="210.81982"
         r="15.29649"
         fill="#00b0ff"
         id="circle1719" />
      <polygon
         points="594.938,256.894 591.805,256.894 593.233,208.516 "
         fill="#3f3d56"
         id="polygon1721" />
      <polygon
         points="593.509,217.685 596.873,213.031 593.463,218.837 593.095,218.192 "
         fill="#3f3d56"
         id="polygon1723" />
      <polygon
         points="593.141,222.384 589.777,217.731 593.187,223.536 593.555,222.891 "
         fill="#3f3d56"
         id="polygon1725" />
      <circle
         cx="733.78003"
         cy="210.81982"
         r="15.29649"
         fill="#00b0ff"
         id="circle1727" />
      <polygon
         points="735.254,256.894 732.121,256.894 733.55,208.516 "
         fill="#3f3d56"
         id="polygon1729" />
      <polygon
         points="733.826,217.685 737.19,213.031 733.78,218.837 733.411,218.192 "
         fill="#3f3d56"
         id="polygon1731" />
      <polygon
         points="733.458,222.384 730.094,217.731 733.504,223.536 733.872,222.891 "
         fill="#3f3d56"
         id="polygon1733" />
      <circle
         cx="637.77454"
         cy="188.84647"
         r="22.59164"
         fill="#00b0ff"
         id="circle1735" />
      <polygon
         points="639.952,256.894 635.325,256.894 637.434,185.444 "
         fill="#3f3d56"
         id="polygon1737" />
      <polygon
         points="637.843,198.985 642.81,192.113 637.775,200.687 637.23,199.734 "
         fill="#3f3d56"
         id="polygon1739" />
      <polygon
         points="637.298,205.926 632.331,199.054 637.366,207.627 637.911,206.675 "
         fill="#3f3d56"
         id="polygon1741" />
      <circle
         cx="692.86823"
         cy="188.84647"
         r="22.59164"
         fill="#00b0ff"
         id="circle1743" />
      <polygon
         points="695.046,256.894 690.419,256.894 692.528,185.444 "
         fill="#3f3d56"
         id="polygon1745" />
      <polygon
         points="692.936,198.985 697.904,192.113 692.868,200.687 692.324,199.734 "
         fill="#3f3d56"
         id="polygon1747" />
      <polygon
         points="692.392,205.926 687.424,199.054 692.46,207.627 693.004,206.675 "
         fill="#3f3d56"
         id="polygon1749" />
      <circle
         cx="549.96899"
         cy="188.84647"
         r="22.59164"
         fill="#00b0ff"
         id="circle1751" />
      <polygon
         points="552.146,256.894 547.519,256.894 549.629,185.444 "
         fill="#3f3d56"
         id="polygon1753" />
      <polygon
         points="550.037,198.985 555.004,192.113 549.969,200.687 549.425,199.734 "
         fill="#3f3d56"
         id="polygon1755" />
      <polygon
         points="549.493,205.926 544.525,199.054 549.561,207.627 550.105,206.675 "
         fill="#3f3d56"
         id="polygon1757" />
      <path
         d="M 974.074,695.81557 H 236.80819 a 70.734,70.734 0 1 1 0,-141.468 h 735.63345 a 27.20538,27.20538 0 0 0 0,-54.41076 H 212.32335 v -43.5286 h 760.11829 a 70.734,70.734 0 1 1 0,141.468 H 236.80819 a 27.20538,27.20538 0 1 0 0,54.41076 H 974.074 Z"
         transform="translate(-156.82437,-204.18443)"
         fill="#e6e6e6"
         id="path1759" />
      <rect
         x="82.704353"
         y="272.8999"
         width="33.734669"
         height="2.17643"
         fill="#ffffff"
         id="rect1761" />
      <rect
         x="178.46729"
         y="272.8999"
         width="33.734669"
         height="2.17643"
         fill="#ffffff"
         id="rect1763" />
      <rect
         x="274.23022"
         y="272.8999"
         width="33.734669"
         height="2.17643"
         fill="#ffffff"
         id="rect1765" />
      <rect
         x="369.99316"
         y="272.8999"
         width="33.734669"
         height="2.17643"
         fill="#ffffff"
         id="rect1767" />
      <rect
         x="465.7561"
         y="272.8999"
         width="33.734669"
         height="2.17643"
         fill="#ffffff"
         id="rect1769" />
      <rect
         x="561.51904"
         y="272.8999"
         width="33.734669"
         height="2.17643"
         fill="#ffffff"
         id="rect1771" />
      <rect
         x="657.28198"
         y="272.8999"
         width="33.734669"
         height="2.17643"
         fill="#ffffff"
         id="rect1773" />
      <rect
         x="753.04486"
         y="272.8999"
         width="33.734669"
         height="2.17643"
         fill="#ffffff"
         id="rect1775" />
      <rect
         x="82.704353"
         y="370.83926"
         width="33.734669"
         height="2.17643"
         fill="#ffffff"
         id="rect1777" />
      <rect
         x="178.46729"
         y="370.83926"
         width="33.734669"
         height="2.17643"
         fill="#ffffff"
         id="rect1779" />
      <rect
         x="274.23022"
         y="370.83926"
         width="33.734669"
         height="2.17643"
         fill="#ffffff"
         id="rect1781" />
      <rect
         x="369.99316"
         y="370.83926"
         width="33.734669"
         height="2.17643"
         fill="#ffffff"
         id="rect1783" />
      <rect
         x="465.7561"
         y="370.83926"
         width="33.734669"
         height="2.17643"
         fill="#ffffff"
         id="rect1785" />
      <rect
         x="561.51904"
         y="370.83926"
         width="33.734669"
         height="2.17643"
         fill="#ffffff"
         id="rect1787" />
      <rect
         x="657.28198"
         y="370.83926"
         width="33.734669"
         height="2.17643"
         fill="#ffffff"
         id="rect1789" />
      <rect
         x="753.04486"
         y="370.83926"
         width="33.734669"
         height="2.17643"
         fill="#ffffff"
         id="rect1791" />
      <rect
         x="82.704353"
         y="468.77863"
         width="33.734669"
         height="2.17643"
         fill="#ffffff"
         id="rect1793" />
      <rect
         x="178.46729"
         y="468.77863"
         width="33.734669"
         height="2.17643"
         fill="#ffffff"
         id="rect1795" />
      <rect
         x="274.23022"
         y="468.77863"
         width="33.734669"
         height="2.17643"
         fill="#ffffff"
         id="rect1797" />
      <rect
         x="369.99316"
         y="468.77863"
         width="33.734669"
         height="2.17643"
         fill="#ffffff"
         id="rect1799" />
      <rect
         x="465.7561"
         y="468.77863"
         width="33.734669"
         height="2.17643"
         fill="#ffffff"
         id="rect1801" />
      <rect
         x="561.51904"
         y="468.77863"
         width="33.734669"
         height="2.17643"
         fill="#ffffff"
         id="rect1803" />
      <rect
         x="657.28198"
         y="468.77863"
         width="33.734669"
         height="2.17643"
         fill="#ffffff"
         id="rect1805" />
      <rect
         x="753.04486"
         y="468.77863"
         width="33.734669"
         height="2.17643"
         fill="#ffffff"
         id="rect1807" />
      <path
         d="m 732.01016,298.87947 a 28.99191,28.99191 0 0 0 -6.04507,-5.70351 h 12.62379 a 21.11412,21.11412 0 0 0 -6.57872,5.70351 z"
         transform="translate(-156.82437,-204.18443)"
         fill="none"
         id="path1809" />
      <path
         d="m 690.74325,293.176 h 2.17616 c -0.46752,0.32845 -0.93648,0.65539 -1.38307,1.01036 -0.25489,-0.34455 -0.52702,-0.675 -0.79309,-1.01036 z"
         transform="translate(-156.82437,-204.18443)"
         fill="none"
         id="path1811" />
      <path
         d="m 748.69208,290.55856 a 20.83292,20.83292 0 0 1 10.12924,2.6174 h -20.23244 a 20.74188,20.74188 0 0 1 10.1032,-2.6174 z"
         transform="translate(-156.82437,-204.18443)"
         fill="#e6e6e6"
         id="path1813" />
      <path
         d="m 709.43111,287.94117 a 28.623,28.623 0 0 1 16.534,5.23479 h -33.0457 a 28.61637,28.61637 0 0 1 16.5117,-5.23479 z"
         transform="translate(-156.82437,-204.18443)"
         fill="#e6e6e6"
         id="path1815" />
      <path
         d="m 487.03606,254.80744 a 53.65615,53.65615 0 0 1 105.27431,-11.3126 c 0.65,-0.0233 1.29951,-0.0494 1.95522,-0.0494 a 53.66909,53.66909 0 0 1 51.48218,38.53833 37.92036,37.92036 0 0 1 44.99548,11.19227 h -167.372 a 36.29323,36.29323 0 0 1 -36.37313,-37.57718 q 0.0161,-0.39512 0.0379,-0.79138 z"
         transform="translate(-156.82437,-204.18443)"
         fill="#e6e6e6"
         id="path1817" />
      <path
         d="m 777.58705,338.05522 a 28.99214,28.99214 0 0 1 6.04507,-5.70351 h -12.62379 a 21.11388,21.11388 0 0 1 6.57872,5.70351 z"
         transform="translate(-156.82437,-204.18443)"
         fill="none"
         id="path1819" />
      <path
         d="m 818.854,332.35171 h -2.17616 c 0.46752,0.32845 0.93647,0.65539 1.38306,1.01036 0.25486,-0.34451 0.527,-0.67496 0.7931,-1.01036 z"
         transform="translate(-156.82437,-204.18443)"
         fill="none"
         id="path1821" />
      <path
         d="m 760.90514,329.73431 a 20.83286,20.83286 0 0 0 -10.12924,2.6174 h 20.23243 a 20.74171,20.74171 0 0 0 -10.10319,-2.6174 z"
         transform="translate(-156.82437,-204.18443)"
         fill="#e6e6e6"
         id="path1823" />
      <path
         d="m 800.16611,327.11691 a 28.62293,28.62293 0 0 0 -16.534,5.2348 h 33.04569 a 28.61635,28.61635 0 0 0 -16.51169,-5.2348 z"
         transform="translate(-156.82437,-204.18443)"
         fill="#e6e6e6"
         id="path1825" />
      <path
         d="M 1022.5611,293.98318 A 53.65615,53.65615 0 0 0 917.28684,282.67059 c -0.65,-0.0233 -1.29951,-0.0494 -1.95522,-0.0494 a 53.66909,53.66909 0 0 0 -51.48218,38.53833 37.92038,37.92038 0 0 0 -44.99544,11.19224 h 167.372 a 36.29324,36.29324 0 0 0 36.3731,-37.57719 q -0.016,-0.39507 -0.038,-0.79134 z"
         transform="translate(-156.82437,-204.18443)"
         fill="#e6e6e6"
         id="path1827" />
      <rect
         x="910.97675"
         y="662.31439"
         width="19.452641"
         height="3.0877199"
         transform="rotate(-179.96937,842.26361,561.78697)"
         fill="#3f3d56"
         id="rect1829" />
      <path
         d="m 770.33154,663.006 4.01354,0.92846 152.53335,0.0815 1.37161,-3.19572 a 32.257,32.257 0 0 0 2.37148,-17.44193 c -0.65694,-4.4136 -2.30315,-8.79914 -6.04213,-10.70394 L 917.8105,587.59 833.42164,587.439 800.7719,613.77308 c 0,0 -15.40137,-0.27686 -23.7685,10.13972 a 24.44959,24.44959 0 0 0 -5.1143,13.46591 l -0.33022,5.41878 z"
         transform="translate(-156.82437,-204.18443)"
         fill="#00b0ff"
         id="path1831" />
      <circle
         cx="647.00934"
         cy="458.0675"
         r="18.835091"
         fill="#3f3d56"
         id="circle1833" />
      <circle
         cx="647.00934"
         cy="458.0675"
         r="9.9132099"
         fill="#cccccc"
         id="circle1835" />
      <circle
         cx="739.94971"
         cy="458.11719"
         r="18.835091"
         fill="#3f3d56"
         id="circle1837" />
      <circle
         cx="739.94971"
         cy="458.11719"
         r="9.9132099"
         fill="#cccccc"
         id="circle1839" />
      <polygon
         points="656.92,406.511 702.483,406.53 708.045,406.53 717.435,406.537 717.435,405.852 717.442,397.594 717.449,388.322 711.201,388.322 705.639,388.316 695.787,388.309 690.225,388.309 678.851,388.302 "
         fill="#ffffff"
         id="polygon1841" />
      <polygon
         points="724.849,406.544 748.929,406.557 748.935,401.832 748.935,393.574 748.942,388.342 745.416,388.342 739.854,388.335 724.856,388.329 "
         fill="#ffffff"
         id="polygon1843" />
      <rect
         x="871.16473"
         y="624.30975"
         width="3.0877199"
         height="5.8666701"
         transform="rotate(-179.96937,794.26913,525.17183)"
         fill="#3f3d56"
         id="rect1845" />
      <rect
         x="821.612"
         y="614.55701"
         width="3.0877199"
         height="5.8666701"
         transform="rotate(90.03063,846.78134,437.02777)"
         fill="#3f3d56"
         id="rect1847" />
      <path
         d="m 817.13838,604.397 h 0.33966 a 6.45333,6.45333 0 0 1 6.45333,6.45333 v 0 a 6.45333,6.45333 0 0 1 -6.45333,6.45333 h -0.33966 z"
         transform="rotate(-179.96937,742.09542,508.77903)"
         fill="#3f3d56"
         id="path1849" />
      <path
         d="m 771.55888,642.79749 a 9.97473,9.97473 0 0 0 5.44452,-18.88469 24.44959,24.44959 0 0 0 -5.1143,13.46591 z"
         transform="translate(-156.82437,-204.18443)"
         fill="#3f3d56"
         id="path1851" />
      <polygon
         points="705.639,388.316 717.435,405.852 717.442,397.594 711.201,388.322 "
         fill="#f2f2f2"
         id="polygon1853" />
      <polygon
         points="739.854,388.335 748.935,401.832 748.935,393.574 745.416,388.342 "
         fill="#f2f2f2"
         id="polygon1855" />
      <polygon
         points="690.225,388.309 702.483,406.53 708.045,406.53 695.787,388.309 "
         fill="#f2f2f2"
         id="polygon1857" />
      <circle
         cx="50.057899"
         cy="260.92953"
         r="50.057899"
         fill="#3f3d56"
         id="circle1859" />
      <path
         d="m 207.09056,480.18425 -25.05073,-25.05073 a 4.35315,4.35315 0 0 1 6.15628,-6.15628 l 18.47789,18.47787 58.96394,-67.23927 a 4.35271,4.35271 0 0 1 6.54523,5.7397 z"
         transform="translate(-156.82437,-204.18443)"
         fill="#00b0ff"
         id="path1861" />
    </g>
  </g>
</svg>
