<?xml version="1.0" encoding="UTF-8" standalone="no"?>
<!-- Created with Inkscape (http://www.inkscape.org/) -->

<svg
   width="93.312851"
   height="93.312851"
   viewBox="0 0 0.9720089 0.97200886"
   version="1.1"
   id="svg5"
   xmlns="http://www.w3.org/2000/svg"
   xmlns:svg="http://www.w3.org/2000/svg">
  <defs
     id="defs2" />
  <g
     id="layer1"
     transform="translate(-1.2059372,-17.753743)">
    <g
       id="g24120"
       transform="translate(-3.5929451,12.413476)">
      <path
         id="path19960-3"
         style="fill:#138468;fill-opacity:1;stroke-width:0.0321766"
         d="M 5.7708912,5.8262711 A 0.48600444,0.48600444 0 0 1 5.2848868,6.3122755 0.48600444,0.48600444 0 0 1 4.7988823,5.8262711 0.48600444,0.48600444 0 0 1 5.2848868,5.3402666 0.48600444,0.48600444 0 0 1 5.7708912,5.8262711 Z" />
      <g
         id="g24114"
         transform="translate(1.7871194)">
        <path
           id="rect21881-6"
           style="fill:#ffffff;stroke-width:0.03125"
           d="M 3.2715979,5.8255537 3.4429278,5.987057 c 0.010075,0.0095 0.00979,0.025562 0,0.035355 -0.00979,0.00979 -0.025562,0.00979 -0.035355,0 L 3.2362426,5.860909 c -0.010075,-0.0095 -0.00979,-0.025562 0,-0.035355 0.00979,-0.00979 0.025562,-0.00979 0.035355,-3e-7 z" />
        <path
           id="path22030"
           style="fill:#ffffff;stroke-width:0.03125"
           d="m 3.4079952,5.9873792 0.3160491,-0.325527 c 0.00964,-0.00993 0.025562,-0.00979 0.035355,0 0.00979,0.00979 0.00979,0.025562 0,0.035355 L 3.4433505,6.0227345 c -0.00964,0.00993 -0.025562,0.00979 -0.035355,0 -0.00979,-0.00979 -0.00979,-0.025562 -3e-7,-0.035355 z" />
      </g>
    </g>
  </g>
</svg>
