<?xml version="1.0" encoding="UTF-8" standalone="no"?>
<!-- Created with Inkscape (http://www.inkscape.org/) -->

<svg
   width="93.312851"
   height="93.312851"
   viewBox="0 0 0.9720089 0.97200886"
   version="1.1"
   id="svg5"
   xml:space="preserve"
   xmlns="http://www.w3.org/2000/svg"
   xmlns:svg="http://www.w3.org/2000/svg"><defs
     id="defs2" /><path
     id="path19960-3"
     style="fill:#ed111b;fill-opacity:1;stroke-width:0.0321766"
     d="M 0.9720089,0.4860041 A 0.48600444,0.48600444 0 0 1 0.4860045,0.9720085 0.48600444,0.48600444 0 0 1 0,0.4860041 0.48600444,0.48600444 0 0 1 0.4860045,-4e-7 0.48600444,0.48600444 0 0 1 0.9720089,0.4860041 Z" /><g
     id="g30536"
     transform="matrix(0.78125059,0,0,0.78125059,0.10631315,0.10647542)"><path
       id="rect21881-6"
       style="fill:#ffffff;stroke-width:0.03125"
       d="m 0.60173673,0.28914418 0.1767767,0.1767767 c 0.00979,0.00979 0.00979,0.025562 0,0.0353551 -0.00979,0.00979 -0.025562,0.00979 -0.0353551,0 l -0.176777,-0.17677641 c -0.00979,-0.00979 -0.00979,-0.025562 0,-0.0353551 0.00979,-0.00979 0.025562,-0.00979 0.0353554,-2.9e-7 z" /><path
       id="path22030"
       style="fill:#ffffff;stroke-width:0.03125"
       d="m 0.21100452,0.46100413 h 0.54999996 c 0.0138451,0 0.0249976,0.0111525 0.0249998,0.0249998 0,0.0138452 -0.0111525,0.0249976 -0.0249998,0.0249998 l -0.54999996,4.2e-7 c -0.0138451,0 -0.0249976,-0.0111525 -0.0249998,-0.0249998 0,-0.0138451 0.0111525,-0.0249976 0.0249998,-0.0250002 z" /><path
       id="path30531"
       style="fill:#ffffff;stroke-width:0.03125"
       d="m 0.60173673,0.68244839 0.1767767,-0.1767767 c 0.00979,-0.00979 0.00979,-0.025562 0,-0.0353551 -0.00979,-0.00979 -0.025562,-0.00979 -0.0353551,0 L 0.56638133,0.647093 c -0.00979,0.00979 -0.00979,0.025562 0,0.0353551 0.00979,0.00979 0.025562,0.00979 0.0353554,2.9e-7 z" /></g></svg>
