<?xml version="1.0" encoding="UTF-8" standalone="no"?>
<!-- Created with Inkscape (http://www.inkscape.org/) -->

<svg
   width="93.312851"
   height="93.312851"
   viewBox="0 0 0.9720089 0.97200886"
   version="1.1"
   id="svg5"
   xmlns="http://www.w3.org/2000/svg"
   xmlns:svg="http://www.w3.org/2000/svg">
  <defs
     id="defs2" />
  <g
     id="layer1"
     transform="translate(-1.0892761,-16.917771)">
    <g
       id="g23697"
       transform="translate(-3.4850487,10.366347)">
      <path
         id="path19960-3"
         style="fill:#ed0720;fill-opacity:1;stroke-width:0.0321766"
         d="M 5.5463337,7.0374281 A 0.48600444,0.48600444 0 0 1 5.0603293,7.5234325 0.48600444,0.48600444 0 0 1 4.5743248,7.0374281 0.48600444,0.48600444 0 0 1 5.0603293,6.5514236 0.48600444,0.48600444 0 0 1 5.5463337,7.0374281 Z" />
      <path
         id="rect21881-6"
         style="fill:#ffffff;stroke-width:0.03125"
         d="m 4.8835526,6.8252961 0.3889087,0.3889087 c 0.00979,0.00979 0.00979,0.025562 0,0.035355 -0.00979,0.00979 -0.025562,0.00979 -0.035355,0 L 4.8481973,6.8606514 c -0.00979,-0.00979 -0.00979,-0.025562 0,-0.035355 0.00979,-0.00979 0.025562,-0.00979 0.035355,-3e-7 z" />
      <path
         id="path22030"
         style="fill:#ffffff;stroke-width:0.03125"
         d="M 4.8481973,7.2142048 5.237106,6.8252961 c 0.00979,-0.00979 0.025562,-0.00979 0.035355,0 0.00979,0.00979 0.00979,0.025562 0,0.035355 l -0.3889084,0.388909 c -0.00979,0.00979 -0.025562,0.00979 -0.035355,0 -0.00979,-0.00979 -0.00979,-0.025562 -3e-7,-0.035355 z" />
    </g>
  </g>
</svg>
