<?xml version="1.0" encoding="UTF-8" standalone="no"?>
<!-- Created with Inkscape (http://www.inkscape.org/) -->

<svg
   width="93.312851"
   height="93.312851"
   viewBox="0 0 0.9720089 0.97200886"
   version="1.1"
   id="svg5"
   xml:space="preserve"
   xmlns="http://www.w3.org/2000/svg"
   xmlns:svg="http://www.w3.org/2000/svg"><defs
     id="defs2" /><path
     id="path19960-3"
     style="fill:#7849b8;fill-opacity:1;stroke-width:0.0321766"
     d="M 0.9720089,0.4860041 A 0.48600444,0.48600444 0 0 1 0.4860045,0.9720085 0.48600444,0.48600444 0 0 1 0,0.4860041 0.48600444,0.48600444 0 0 1 0.4860045,-4e-7 0.48600444,0.48600444 0 0 1 0.9720089,0.4860041 Z" /><g
     id="g25794"
     transform="rotate(45,0.4860045,0.4860041)"><path
       id="rect21881-6"
       style="fill:#ffffff;stroke-width:0.03125"
       d="m 0.3092278,0.2738721 0.3889087,0.3889087 c 0.00979,0.00979 0.00979,0.025562 0,0.035355 -0.00979,0.00979 -0.025562,0.00979 -0.035355,0 L 0.2738725,0.3092274 c -0.00979,-0.00979 -0.00979,-0.025562 0,-0.035355 0.00979,-0.00979 0.025562,-0.00979 0.0353553,-3e-7 z" /><path
       id="path22030"
       style="fill:#ffffff;stroke-width:0.03125"
       d="M 0.2738725,0.6627808 0.6627812,0.2738721 c 0.00979,-0.00979 0.025562,-0.00979 0.035355,0 0.00979,0.00979 0.00979,0.025562 0,0.035355 l -0.3889084,0.388909 c -0.00979,0.00979 -0.025562,0.00979 -0.035355,0 -0.00979,-0.00979 -0.00979,-0.025562 -3e-7,-0.0353553 z" /></g></svg>
