<?xml version="1.0" encoding="UTF-8" standalone="no"?>
<!-- Created with Inkscape (http://www.inkscape.org/) -->

<svg
   width="93.312851"
   height="93.312851"
   viewBox="0 0 0.9720089 0.97200886"
   version="1.1"
   id="svg5"
   xmlns="http://www.w3.org/2000/svg"
   xmlns:svg="http://www.w3.org/2000/svg">
  <defs
     id="defs2" />
  <g
     id="layer1"
     transform="translate(-0.8656905,-16.247046)">
    <g
       id="g23486"
       transform="translate(-2.0553132,9.5848885)">
      <path
         id="path19960"
         style="fill:#4d4d4d;stroke-width:0.0321766"
         d="M 3.8930126,7.1481624 A 0.48600444,0.48600444 0 0 1 3.4070082,7.6341668 0.48600444,0.48600444 0 0 1 2.9210037,7.1481624 0.48600444,0.48600444 0 0 1 3.4070082,6.6621579 0.48600444,0.48600444 0 0 1 3.8930126,7.1481624 Z" />
      <path
         id="rect21881"
         style="fill:#ffffff;stroke-width:0.03125"
         d="m 3.1320082,7.1231623 h 0.55 c 0.01385,0 0.025,0.01115 0.025,0.025 0,0.01385 -0.01115,0.025 -0.025,0.025 h -0.55 c -0.01385,0 -0.025,-0.01115 -0.025,-0.025 0,-0.01385 0.01115,-0.025 0.025,-0.025 z" />
    </g>
  </g>
</svg>
